<svg width="5" height="8" viewBox="0 0 5 8" fill="none" xmlns="http://www.w3.org/2000/svg">
<path d="M1.3673 0.22347C1.05451 -0.07449 0.547378 -0.07449 0.234591 0.22347C-0.078197 0.52143 -0.078197 1.00452 0.234591 1.30248L3.6327 4.5395C3.94549 4.83746 4.45262 4.83746 4.76541 4.5395C5.0782 4.24154 5.0782 3.75846 4.76541 3.4605L1.3673 0.22347Z" fill="#C734F7"/>
<path d="M0.234591 6.69752C-0.078197 6.99548 -0.078197 7.47857 0.234591 7.77653C0.547378 8.07449 1.05451 8.07449 1.3673 7.77653L4.76541 4.5395C5.0782 4.24154 5.0782 3.75846 4.76541 3.4605C4.45262 3.16254 3.94549 3.16254 3.6327 3.4605L0.234591 6.69752Z" fill="#C734F7"/>
</svg>
