<svg width="24" height="14" viewBox="0 0 24 14" fill="none" xmlns="http://www.w3.org/2000/svg">
<path d="M19.9157 8.02828C19.5277 7.53818 19.6387 7.32026 19.9157 6.88224C19.9207 6.8772 23.1239 2.45108 23.4539 0.949948L23.4558 0.948987C23.6198 0.402007 23.4558 0 22.6628 0H20.0387C19.3707 0 19.0627 0.345013 18.8977 0.730946C18.8977 0.730946 17.5617 3.92905 15.6716 6.00213C15.0615 6.60119 14.7795 6.7932 14.4465 6.7932C14.2825 6.7932 14.0275 6.60119 14.0275 6.05421V0.948987C14.0275 0.292924 13.8405 0 13.2875 0H9.16133C8.74231 0 8.4933 0.306011 8.4933 0.591021C8.4933 1.213 9.43833 1.35604 9.53634 3.10606V6.90324C9.53634 7.73523 9.38533 7.88823 9.05032 7.88823C8.15828 7.88823 5.99322 4.67716 4.71017 1.00203C4.45116 0.288969 4.19814 0.000961338 3.52512 0.000961338H0.900032C0.151005 0.000961338 0 0.345973 0 0.732027C0 1.41401 0.892031 4.80508 4.14815 9.28532C6.31822 12.3434 9.37434 14.0004 12.1544 14.0004C13.8254 14.0004 14.0295 13.6325 14.0295 12.9995C14.0295 10.0774 13.8785 9.80134 14.7155 9.80134C15.1035 9.80134 15.7716 9.99335 17.3316 11.4683C19.1146 13.2174 19.4077 14.0004 20.4058 14.0004H23.0298C23.7779 14.0004 24.1569 13.6325 23.9388 12.9065C23.4398 11.3794 20.0677 8.23829 19.9157 8.02828Z" fill="#887DB7"/>
</svg>
